<svg xmlns="http://www.w3.org/2000/svg" width="805" height="600"><rect width="805" height="600" x="0" y="0" fill="#FFFFFF" id="backgorund"/><g transform="translate(50,100)" id="viz"><g fill="none" font-size="10" font-family="sans-serif" text-anchor="middle"><path class="domain" stroke="currentColor" d="M0.5,0.5H705.5"/><g class="tick" opacity="1" transform="translate(118.17047075606277,0)"><line stroke="currentColor" y2="-6"/><text fill="currentColor" y="-9" dy="3.4641016151377544" dx="3.4641016151377544" text-anchor="start" transform="rotate(-45)">Democratic</text></g><g class="tick" opacity="1" transform="translate(352.5,0)"><line stroke="currentColor" y2="-6"/><text fill="currentColor" y="-9" dy="3.4641016151377544" dx="3.4641016151377544" text-anchor="start" transform="rotate(-45)">Republican</text></g><g class="tick" opacity="1" transform="translate(586.8295292439373,0)"><line stroke="currentColor" y2="-6"/><text fill="currentColor" y="-9" dy="3.4641016151377544" dx="3.4641016151377544" text-anchor="start" transform="rotate(-45)">Independent</text></g></g><g fill="none" font-size="10" font-family="sans-serif" text-anchor="end"><path class="domain" stroke="currentColor" d="M0.5,0.5V470.5"/><g class="tick" opacity="1" transform="translate(0,118.00213675213676)"><line stroke="currentColor" x2="-6"/><text fill="currentColor" x="-9" dy="0.32em">House</text></g><g class="tick" opacity="1" transform="translate(0,351.9978632478632)"><line stroke="currentColor" x2="-6"/><text fill="currentColor" x="-9" dy="0.32em">Senate</text></g></g><text dx="-9" dy="-9" style="text-anchor: end; font-family: Arial, sans-serif; font-size: 12px; fill: rgb(123, 123, 123); font-weight: bold;">chamber</text><text x="504.8742417671949" y="504.8742417671949" dx="3.4641016151377544" dy="-3.4641016151377544" transform="rotate(-45)" style="text-anchor: start; font-family: Arial, sans-serif; font-size: 12px; fill: rgb(123, 123, 123); font-weight: bold;">party</text><rect x="2.0114122681882804" y="2.0085470085470263" rx="0" ry="0" width="233" height="233" style="fill: rgb(31, 119, 180);"/><rect x="251.6575962419657" y="17.325201738387193" rx="0" ry="0" width="202.36669054031967" height="202.36669054031967" style="fill: rgb(44, 160, 44);"/><rect x="24.43047697832297" y="258.4233382144082" rx="0" ry="0" width="188.16187057973062" height="188.16187057973062" style="fill: rgb(31, 119, 180);"/><rect x="570.2947564592725" y="335.6285592074832" rx="0" ry="0" width="33.751428593580584" height="33.751428593580584" style="fill: rgb(255, 127, 14);"/><rect x="276.2881911802093" y="275.95152317235727" rx="0" ry="0" width="153.1055006638324" height="153.1055006638324" style="fill: rgb(44, 160, 44);"/><g id="labels"><g transform="translate(118.51141226818828,118.50854700854703)"><text x="0" y="0" text-anchor="middle" dominant-baseline="text-before-edge" transform="translate(0,0)"/></g><g transform="translate(352.84094151212554,118.50854700854703)"><text x="0" y="0" text-anchor="middle" dominant-baseline="text-before-edge" transform="translate(0,0)"/></g><g transform="translate(118.51141226818828,352.5042735042735)"><text x="0" y="0" text-anchor="middle" dominant-baseline="text-before-edge" transform="translate(0,0)"/></g><g transform="translate(587.1704707560627,352.5042735042735)"><text x="0" y="0" text-anchor="middle" dominant-baseline="text-before-edge" transform="translate(0,0)"/></g><g transform="translate(352.84094151212554,352.5042735042735)"><text x="0" y="0" text-anchor="middle" dominant-baseline="text-before-edge" transform="translate(0,0)"/></g></g></g></svg>